<?xml version="1.0" encoding="UTF-8" standalone="no"?>
<!-- Creator: CorelDRAW 2019 (64 Bit) -->

<svg
   xml:space="preserve"
   width="107.78072mm"
   height="68.601753mm"
   version="1.1"
   style="clip-rule:evenodd;fill-rule:evenodd;image-rendering:optimizeQuality;shape-rendering:geometricPrecision;text-rendering:geometricPrecision"
   viewBox="0 0 10778.071 6860.1754"
   id="svg5"
   xmlns="http://www.w3.org/2000/svg"
   xmlns:svg="http://www.w3.org/2000/svg">
 <defs
   id="defs1"><style
     type="text/css"
     id="style1">
   <![CDATA[
    .fil0 {fill:#FEFEFE}
    .fil1 {fill:#FEFEFE;fill-rule:nonzero}
   ]]>
  </style></defs>
 <g
   id="Camada_x0020_1"
   transform="translate(-4746.2386,-3688.713)">
  <metadata
   id="CorelCorpID_0Corel-Layer" />
  <g
   id="_1967276779824"
   transform="translate(635.80838,2677.088)">
   <path
   class="fil0"
   d="m 11078.5,7846.4 v -1524 c 84.51,44.72 153.63,83.33 249.11,123.43 92.27,38.76 179.72,67.05 276.8,95.73 195.21,57.67 416.11,77.18 667.89,77.18 l 8.47,203.2 c 0,231.06 -139.06,499.04 -302.61,662.59 -28.32,28.32 -48.21,40.85 -76.27,67.66 -192.27,183.72 -550.31,294.21 -823.39,294.21 z m 1369.62,-2119.47 c -116.38,-73.08 -258.5,-360.76 -332.26,-543.46 -190.79,-472.56 -217.91,-1010.34 -81.65,-1504.04 46.29,-167.72 171.88,-469.38 280.42,-590.53 31.35,12.46 28.16,21.13 56.15,53.27 21.82,25.05 29.26,33.65 49.09,60.88 213.07,292.46 369.53,775.19 382.81,1137.8 19.91,543.74 -102.31,1023.95 -354.56,1386.08 z m 704.71,-3936.12 c 205.07,116.05 318.47,241.35 469.3,387.89 122.95,119.45 253.7,312.41 349.35,497.11 507.81,980.63 219.9,2215.36 -654.31,2871.03 -163.94,122.95 -472.4,349.76 -699.63,359.96 19.66,-50.95 61.48,-114.59 88.27,-166.62 368.68,-715.92 462.26,-1492.46 130.12,-2250.25 -167.02,-381.05 -330.71,-522.82 -384.2,-621.92 z m -3539.06,349.07 c 0,75.56 -8.47,117.74 -8.47,194.73 v 4512.73 c 0,72.74 102.9,246.33 143.44,313.75 106.91,177.76 372.15,422.92 553.54,513.26 262.89,130.93 444.93,197.45 776.22,197.45 294.66,0 625.26,-109.78 836.02,-298.51 118.88,-106.44 53.88,-47.29 139.78,-139.62 68.12,-73.22 126.44,-171.14 167.45,-264.35 82.82,-188.21 84.42,-285.38 84.42,-482.85 0,-42.55 -7.62,-37.91 -8.47,-76.2 361.31,0 760,-140.47 1061.28,-293.39 151.67,-76.98 421.1,-258.11 540.96,-364.97 l 215.98,-207.35 c 197.02,-196.88 432.02,-544.42 534.34,-794.92 162.16,-397 238.24,-689.93 238.24,-1150.3 0,-675.94 -270.05,-1350.07 -696.79,-1851.66 -44.09,-51.82 -161.11,-182.08 -210.4,-221.41 l -132.23,-121.77 c -88.12,-78.75 -196.39,-148.37 -294.88,-213.12 -341.72,-224.67 -846.04,-377.56 -1332.7,-377.56 -589.83,0 -1086.47,184.9 -1481.73,380.93 -27.54,13.66 -42.96,24.85 -70.45,39.62 l -225.91,129.69 c -93.29,61.96 -186.19,124.26 -279.31,186.35 l -414.81,287.92 c -46.47,32.63 -88.1,69.79 -135.52,101.55 z"
   id="path1" />
   <path
   class="fil0"
   d="m 6684.3,6830.4 8.46,-220.13 c 421.77,0 688.66,-52.28 1035.76,-225.78 l 124.18,-62.09 v 1524 c -71.69,0 -174.33,-17.07 -240.64,-30.3 C 7322.97,7758.42 7110.5,7621.22 6923.54,7412.43 6802.33,7277.07 6684.3,7027.4 6684.3,6830.4 Z m 0,-1020.17 c -49.43,-48.24 -124.13,-200.82 -162.23,-273.8 -47,-90.01 -90.6,-214.7 -120.44,-319.55 -139.78,-491.09 -111.94,-1033.11 82.45,-1507.69 54.07,-131.99 226.98,-484.78 335.68,-535.35 108.08,106.69 241.73,428.85 288.95,590.26 141.84,484.84 110.58,1046.76 -85.58,1508.67 -78.43,184.68 -216.45,461.69 -338.83,537.46 z M 4858.32,3816.28 c -0.65,-628.97 260.42,-1215.07 672.76,-1610.43 75.72,-72.6 341.58,-303.9 432.79,-329.37 l 715.69,1076.2 c -34.18,53.16 -76.86,98.26 -115.29,150.88 -564.85,773.37 -643.08,1675.97 -228.57,2551.26 l 173.81,337.45 c -246.31,-12.25 -615.61,-274.19 -790.04,-415.29 -21.72,-17.57 -42.07,-36.19 -64.69,-53.7 -457,-353.57 -795.78,-1043.53 -796.46,-1707 z m -747.89,0 c 0,478.29 102.02,811.63 276.95,1221.64 29.93,70.14 140.12,252.37 183.77,324.24 216.99,357.32 677.28,764.6 1051.87,954.72 147.69,74.97 302.74,144.16 473.97,194.9 154.99,45.93 407.98,98.49 570.37,98.49 l -8.46,203.2 c 0,211.9 113.53,467.05 239.24,607.42 76.16,85.05 53.89,65.9 143.64,144.23 492.67,429.94 1235.95,382.57 1742.35,-6.49 163.48,-125.59 332.94,-300.17 426.09,-488.31 24.03,-48.53 90.28,-165.49 90.28,-222.98 V 2173.75 c 0,-40.15 -20.85,-47.38 -44.12,-65.95 -130.42,-104.07 -327.92,-244.4 -462.19,-333.68 l -406.36,-270.97 c -22.67,-14.21 -48.5,-27.84 -69.9,-40.16 L 8097.05,1345.2 c -166.03,-66.83 -286.92,-140.3 -489.88,-195.92 -59.6,-16.33 -115.46,-35.27 -177.78,-50.82 -538.54,-134.31 -1099.4,-118.42 -1614.81,87.03 -232.11,92.52 -480.07,241 -669.33,405.94 l -90.13,79.21 c -22.51,17.39 -25.78,19.86 -45.18,39.48 -161.95,163.8 -328.57,356.84 -445.01,554.06 l -121.58,208.62 c -210.47,421.24 -332.92,849.31 -332.92,1343.48 z"
   id="path2" />
   <path
   class="fil0"
   d="m 9478.3,1877.41 c 186.16,-43.37 291.64,-102.4 425.49,-234.91 103.33,-102.28 209.51,-292.68 209.51,-450.88 -217.09,18.06 -463.26,226.91 -561.86,428.73 -31.01,63.47 -73.14,168.71 -73.14,257.06 z"
   id="path3" />
   <path
   class="fil0"
   d="m 8826.36,1191.62 c 0,115.9 69.33,267.29 128.58,354.02 24.69,36.15 44.68,56.13 71.01,89.85 67.19,86.05 267.71,230.79 401.55,241.92 0,-252.02 -168.21,-481.05 -367.4,-614.73 -51.68,-34.68 -156.9,-94.75 -233.74,-96.46 z"
   id="path4" />
  </g>
  
 </g>
</svg>
